# AST/ASF file generated using VICON BodyLanguage
# -----------------------------------------------
:version 1.10
:name VICON
:units
  mass 1.0
  length 0.45
  angle deg
:documentation
   .ast/.asf automatically generated from VICON data using
   VICON BodyBuilder and BodyLanguage model FoxedUp or BRILLIANT.MOD
:root
   order TX TY TZ RX RY RZ
   axis XYZ
   position 0 0 0  
   orientation 0 0 0 
:bonedata
  begin
     id 1 
     name lhipjoint
     direction 0.588788 -0.725889 0.355548 
     length 2.37778 
     axis 0 0 0  XYZ
  end
  begin
     id 2 
     name lfemur
     direction 0.34202 -0.939693 0  
     length 6.86393  
     axis 0 0 20  XYZ
    dof rx ry rz
    limits (-160.0 20.0)
           (-70.0 70.0)
           (-60.0 70.0)
  end
  begin
     id 3 
     name ltibia
     direction 0.34202 -0.939693 0   
     length 7.32851   
     axis 0 0 20   XYZ
    dof rx
    limits (-10.0 170.0)
  end
  begin
     id 4 
     name lfoot
     direction 0.0626533 -0.172138 0.983078   
     length 1.98929   
     axis -90 7.62852e-016 20   XYZ
    dof rx rz
    limits (-45.0 90.0)
           (-70.0 20.0)
  end
  begin
     id 5 
     name ltoes
     direction 1.53647e-011 -4.21734e-011 1   
     length 1.00479   
     axis -90 7.62852e-016 20   XYZ
    dof rx
    limits (-90.0 20.0)
  end
  begin
     id 6 
     name rhipjoint
     direction -0.59141 -0.724168 0.354705   
     length 2.38343  
     axis 0 0 0  XYZ 
  end
  begin
     id 7 
     name rfemur
     direction -0.34202 -0.939693 0   
     length 6.95589   
     axis 0 0 -20   XYZ
    dof rx ry rz
    limits (-160.0 20.0)
           (-70.0 70.0)
           (-70.0 60.0)
  end
  begin
     id 8 
     name rtibia
     direction -0.34202 -0.939693 0   
     length 7.32327   
     axis 0 0 -20   XYZ
    dof rx
    limits (-10.0 170.0)
 end
 begin
     id 9 
     name rfoot
     direction -0.0660461 -0.18146 0.981178   
     length 1.85272  
     axis -90 -7.62852e-016 -20   XYZ
    dof rx rz
    limits (-45.0 90.0)
           (-20.0 70.0)
  end
  begin
     id 10 
     name rtoes
     direction -1.53586e-011 -4.21988e-011 1   
     length 0.93746   
     axis -90 -7.62852e-016 -20   XYZ
    dof rx
    limits (-90.0 20.0)
  end
  begin
     id 11 
     name lowerback
     direction -0.0107982 0.991059 0.13299   
     length 1.98691   
     axis 0 0 0   XYZ
    dof rx ry rz
    limits (-20.0 45.0)
           (-30.0 30.0)
           (-30.0 30.0)
  end
  begin
     id 12 
     name upperback
     direction 0.0076296 0.999916 0.0104576   
     length 1.99501   
     axis 0 0 0   XYZ
    dof rx ry rz
    limits (-20.0 45.0)
           (-30.0 30.0)
           (-30.0 30.0)
  end
  begin
     id 13 
     name thorax
     direction 0.01176 0.998615 -0.0512909   
     length 2.03144   
     axis 0 0 0   XYZ
    dof rx ry rz
    limits (-20.0 45.0)
           (-30.0 30.0)
           (-30.0 30.0)
  end
  begin
     id 14 
     name lowerneck
     direction -0.0171909 0.999644 0.0204011   
     length 1.71818   
     axis 0 0 0   XYZ
    dof rx ry rz
    limits (-20.0 45.0)
           (-30.0 30.0)
           (-30.0 30.0)
  end
  begin
     id 15 
     name upperneck
     direction 0.0250902 0.997482 -0.0663316   
     length 1.66199   
     axis 0 0 0   XYZ
    dof rx ry rz
    limits (-20.0 45.0)
           (-30.0 30.0)
           (-30.0 30.0)
  end
  begin
     id 16
     name head
     direction 0.00881535 0.99956 -0.0283365  
     length 1.81545  
     axis 0 0 0   XYZ
    dof rx ry rz
    limits (-20.0 45.0)
           (-30.0 30.0)
           (-30.0 30.0)
  end
  begin
     id 17 
     name lclavicle
     direction 0.840411 0.486876 -0.238035  
     length 3.30409  
     axis 0 0 0   XYZ
    dof ry rz
    limits (-20.0 10.0)
           (0.0 20.0)
  end
  begin
     id 18 
     name lhumerus
     direction 1 -4.48977e-011 -5.16239e-027   
     length 4.62672   
     axis 180 -30 -90   XYZ
    dof rx ry rz
    limits (-60.0 90.0)
           (-90.0 90.0)
           (-90.0 90.0)
  end
  begin
     id 19
     name lradius
     direction 1 -4.48977e-011 -8.71171e-027   
     length 3.11018   
     axis 180 -30 -90   XYZ
    dof rx
    limits (-10.0 170.0)
  end
  begin
     id 20
     name lwrist
     direction 1 -4.48912e-011 -1.03764e-026   
     length 1.55509   
     axis 9.09556e-015 90 90   XYZ
    dof ry
    limits (-180.0 0.0)
 end
  begin
     id 21 
     name lhand
     direction 1 -4.49072e-011 -2.07528e-026   
     length 0.743834   
     axis 1.3242e-014 90 90   XYZ
    dof rx rz
    limits (-90.0 90.0)
           (-45.0 45.0)
  end
  begin
     id 22 
     name lfingers
     direction 1 -4.48909e-011 -4.15056e-026   
     length 0.599698   
     axis 2.64841e-014 90 90   XYZ
    dof rx
    limits (0.0 90.0)
  end
  begin
     id 23
     name lthumb
     direction 0.707107 -6.35013e-011 0.707107   
     length 0.86105   
     axis -90 45 2.85299e-015   XYZ
    dof rx rz
    limits (-45.0 45.0)
           (-45.0 45.0)
  end
  begin
     id 24 
     name rclavicle
     direction -0.835208 0.500237 -0.228452   
     length 3.2716  
     axis 0 0 0   XYZ 
    dof ry rz
    limits (-10.0 20.0)
           (-20.0 0.0)
  end
  begin
     id 25 
     name rhumerus
     direction -1 -4.48978e-011 -5.1953e-028  
     length 4.55919   
     axis 180 30 90   XYZ
    dof rx ry rz
    limits (-90.0 60.0)
           (-90.0 90.0)
           (-90.0 90.0)
  end
  begin
     id 26 
     name rradius
     direction -1 -4.48961e-011 -5.99546e-027   
     length 3.22748   
     axis 180 30 90   XYZ
    dof rx
    limits (-10.0 170.0)
  end
  begin
     id 27 
     name rwrist
     direction -1 -4.48986e-011 -1.03764e-026   
     length 1.61374   
     axis 9.09556e-015 -90 -90   XYZ
    dof ry
    limits (-180.0 0.0)
  end
  begin
     id 28
     name rhand
     direction -1 -4.4899e-011 -2.07528e-026   
     length 0.700882   
     axis 1.3242e-014 -90 -90   XYZ
    dof rx rz
    limits (-90.0 90.0)
           (-45.0 45.0)
  end
  begin
     id 29
     name rfingers
     direction -1 -4.48991e-011 -4.15056e-026   
     length 0.565069   
     axis 2.64841e-014 -90 -90   XYZ
    dof rx
    limits (0.0 90.0)
  end
  begin
     id 30
     name rthumb
     direction -0.707107 -6.34804e-011 0.707107   
     length 0.811329   
     axis -90 -45 -2.85299e-015   XYZ
    dof rx rz
    limits (-45.0 45.0)
           (-45.0 45.0)
  end
:hierarchy
  begin
    root lhipjoint rhipjoint lowerback
    lhipjoint lfemur
    lfemur ltibia
    ltibia lfoot
    lfoot ltoes
    rhipjoint rfemur
    rfemur rtibia
    rtibia rfoot
    rfoot rtoes
    lowerback upperback
    upperback thorax
    thorax lowerneck lclavicle rclavicle
    lowerneck upperneck
    upperneck head
    lclavicle lhumerus
    lhumerus lradius
    lradius lwrist
    lwrist lhand lthumb
    lhand lfingers
    rclavicle rhumerus
    rhumerus rradius
    rradius rwrist
    rwrist rhand rthumb
    rhand rfingers
  end

#!OML:ASF F:\VICON\USERDATA\INSTALL\SteveWalk\SteveWalk.ASF
:FULLY-SPECIFIED
:DEGREES
271
root -0.112866 16.448 16.2198 16.2619 4.38525 -0.0238503
lowerback -14.9382 -0.257633 1.08631
upperback -5.59758 -0.546401 1.79878
thorax 2.46233 -0.261499 1.17694
lowerneck -5.01654 -0.674725 0.0371173
upperneck 10.3388 -0.585072 -3.06308
head 4.28941 -0.433742 -1.0671
rclavicle 7.60351e-015 -1.27222e-014
rhumerus -30.4322 -16.5532 -78.7888
rradius 25.2397
rwrist 1.24889
rhand -15.9897 -35.0448
rfingers 7.12502
rthumb 10.2101 -64.777
lclavicle 7.60351e-015 -1.27222e-014
lhumerus -40.3474 4.96418 85.3581
lradius 25.1256
lwrist -5.8107
lhand -13.9422 -15.7762
lfingers 7.12502
lthumb 12.1848 13.8489
rfemur -26.9374 -1.26405 24.1752
rtibia 33.7201
rfoot -22.3996 8.96102
rtoes -1.81153
lfemur -43.7317 3.58734 -21.8595
ltibia 70.7889
lfoot -4.383 1.12708
ltoes 0.122636
272
root -0.0808979 16.4317 16.4532 16.5764 5.03142 -0.958782
lowerback -15.894 -0.212354 2.4744
upperback -5.64096 -0.720193 1.92355
thorax 2.90951 -0.354351 0.49066
lowerneck -4.62356 -0.715702 0.101357
upperneck 10.217 -0.646518 -3.12123
head 4.16551 -0.460371 -1.09572
rclavicle -2.6339e-015 -1.66979e-014
rhumerus -29.4215 -14.1439 -80.0912
rradius 26.8887
rwrist -1.09433
rhand -16.2321 -34.5254
rfingers 7.12502
rthumb 9.97626 -64.269
lclavicle -2.6339e-015 -1.66979e-014
lhumerus -41.3203 5.83254 84.5925
lradius 23.812
lwrist -7.53307
lhand -13.6281 -15.6737
lfingers 7.12502
lthumb 12.4877 13.9332
rfemur -26.3677 -2.92014 25.4568
rtibia 33.6829
rfoot -23.4151 10.3628
rtoes -0.161015
lfemur -45.0385 3.19583 -20.9728
ltibia 69.3024
lfoot -5.08792 1.45739
ltoes -0.932635
273
root -0.0884734 16.4103 16.6335 16.439 4.45475 -0.339495
lowerback -15.4548 -0.239695 1.55928
upperback -5.66842 -0.598474 1.72431
thorax 2.65748 -0.291171 0.821589
lowerneck -4.2595 -0.663222 0.1635
upperneck 10.0469 -0.594787 -3.05794
head 4.03291 -0.425413 -1.07712
rclavicle -2.65874e-015 3.18055e-015
rhumerus -28.3711 -12.1106 -81.1576
rradius 28.2334
rwrist -2.79486
rhand -16.4709 -33.5784
rfingers 7.12502
rthumb 9.74588 -63.3329
lclavicle -2.65874e-015 3.18055e-015
lhumerus -42.2973 7.10763 83.4531
lradius 22.5445
lwrist -9.81507
lhand -13.3563 -15.9274
lfingers 7.12502
lthumb 12.7497 13.6633
rfemur -25.582 -2.47411 24.7039
rtibia 33.816
rfoot -24.0085 10.1349
rtoes -0.449767
lfemur -45.7064 3.35404 -21.8088
ltibia 67.435
lfoot -5.46981 1.82956
ltoes -2.64821
274
root -0.100665 16.3855 16.8115 16.3983 3.7504 0.197515
lowerback -15.1993 -0.195864 0.630852
upperback -5.51821 -0.39904 1.55622
thorax 2.68494 -0.186896 1.20477
lowerneck -4.39755 -0.592308 0.0859883
upperneck 9.89393 -0.513732 -2.87751
head 4.00699 -0.379879 -0.998439
rclavicle -3.5657e-015 7.95139e-015
rhumerus -26.9667 -10.2573 -82.1278
rradius 29.7584
rwrist -4.19314
rhand -16.4636 -33.4697
rfingers 7.12502
rthumb 9.75288 -63.2239
lclavicle -3.5657e-015 7.95139e-015
lhumerus -42.8979 8.42188 82.3116
lradius 21.3648
lwrist -12.0229
lhand -12.4365 -15.4617
lfingers 7.12502
lthumb 13.6364 14.0716
rfemur -24.967 -1.77228 24.0246
rtibia 34.0682
rfoot -24.4975 9.84053
rtoes -0.204664
lfemur -46.472 3.69335 -22.5722
ltibia 65.3463
lfoot -5.93914 2.21007
ltoes -3.98182
275
root -0.0672001 16.3548 16.9903 16.498 4.13074 0.0662067
lowerback -15.0614 -0.219018 1.22342
upperback -5.51002 -0.507914 1.45907
thorax 2.61548 -0.246276 0.749683
lowerneck -4.47328 -0.539116 0.0756618
upperneck 9.72764 -0.447636 -2.84715
head 3.96391 -0.345398 -0.982028
rclavicle -1.59152e-014 8.34896e-015
rhumerus -25.7467 -8.38643 -82.8827
rradius 31.4497
rwrist -5.7487
rhand -16.4648 -33.7203
rfingers 7.12502
rthumb 9.75175 -63.4745
lclavicle -1.59152e-014 8.34896e-015
lhumerus -43.5088 9.8365 81.0681
lradius 19.8809
lwrist -14.1024
lhand -11.5727 -14.8593
lfingers 7.12502
lthumb 14.4688 14.6163
rfemur -24.4335 -3.53474 24.3205
rtibia 34.3037
rfoot -25.2434 11.4748
rtoes 2.12798
lfemur -47.3765 3.23311 -22.6019
ltibia 63.1084
lfoot -6.31113 2.69018
ltoes -4.4821
276
root -0.0821984 16.3277 17.1896 16.7292 3.26407 0.581118
lowerback -15.0834 -0.113639 0.242755
upperback -5.60306 -0.223595 1.30593
thorax 2.5316 -0.0985999 1.19179
lowerneck -4.38459 -0.508487 0.128332
upperneck 9.62602 -0.410398 -2.88241
head 3.91099 -0.325173 -0.999486
rclavicle -5.13113e-015 -1.98785e-015
rhumerus -24.8258 -6.6805 -83.4039
rradius 32.9391
rwrist -7.20482
rhand -16.5259 -33.2548
rfingers 7.12502
rthumb 9.69275 -63.0118
lclavicle -5.13113e-015 -1.98785e-015
lhumerus -44.465 11.3625 79.5657
lradius 18.3407
lwrist -16.4884
lhand -11.6947 -15.2176
lfingers 7.12502
lthumb 14.3512 14.2663
rfemur -23.9308 -2.93537 23.6642
rtibia 34.303
rfoot -25.9222 11.2535
rtoes 1.99752
lfemur -48.0839 3.67344 -23.3479
ltibia 60.5339
lfoot -6.63964 3.24041
ltoes -3.86069
277
root -0.0769173 16.3122 17.3906 16.7161 2.99099 0.411271
lowerback -14.9317 -0.0441171 0.298518
upperback -5.60776 -0.139293 1.31879
thorax 2.444 -0.0571606 1.18757
lowerneck -4.40399 -0.483348 0.117623
upperneck 9.56525 -0.379841 -2.85399
head 3.89374 -0.308874 -0.986145
rclavicle -4.69629e-015 -1.55052e-014
rhumerus -23.8175 -5.04711 -83.8536
rradius 34.2661
rwrist -8.43633
rhand -16.5709 -32.4399
rfingers 7.12502
rthumb 9.64941 -62.1989
lclavicle -4.69629e-015 -1.55052e-014
lhumerus -45.5759 13.1136 77.7648
lradius 17.1651
lwrist -19.7121
lhand -11.7515 -15.4874
lfingers 7.12502
lthumb 14.2965 14.0004
rfemur -22.9649 -3.18258 23.8371
rtibia 34.006
rfoot -26.8919 11.194
rtoes 0.821106
lfemur -48.4736 3.75019 -23.2371
ltibia 57.8246
lfoot -7.02499 3.64391
ltoes -4.57922
278
root -0.0561167 16.3038 17.5995 16.6138 2.45319 0.185866
lowerback -14.9343 0.138255 0.59625
upperback -5.49171 0.058011 1.27132
thorax 2.56404 0.03722 1.00282
lowerneck -4.46347 -0.413011 0.132616
upperneck 9.4845 -0.297434 -2.75668
head 3.87804 -0.263099 -0.952077
rclavicle -2.84511e-015 7.55382e-015
rhumerus -22.6464 -3.41615 -84.2614
rradius 35.5112
rwrist -9.44257
rhand -15.8194 -32.9876
rfingers 7.12502
rthumb 10.3744 -62.7117
lclavicle -2.84511e-015 7.55382e-015
lhumerus -46.7917 15.087 75.6014
lradius 16.28
lwrist -23.0808
lhand -11.0101 -15.1189
lfingers 7.12502
lthumb 15.0107 14.317
rfemur -21.8209 -3.72637 23.9415
rtibia 33.5508
rfoot -27.412 12.1271
rtoes 1.15711
lfemur -48.5539 3.94458 -23.1252
ltibia 54.8572
lfoot -7.38658 4.04826
ltoes -7.94907
279
root -0.0459145 16.2865 17.7955 16.5674 1.91258 -0.0918945
lowerback -14.8878 0.316069 0.818685
upperback -5.42777 0.260589 1.24706
thorax 2.60469 0.135526 0.885637
lowerneck -4.3323 -0.329809 0.208643
upperneck 9.29953 -0.202843 -2.69378
head 3.7883 -0.208577 -0.937361
rclavicle -2.83268e-015 -7.95139e-016
rhumerus -21.521 -2.17743 -84.5163
rradius 36.7881
rwrist -9.59868
rhand -15.0008 -33.3017
rfingers 7.12502
rthumb 11.164 -62.9847
lclavicle -2.83268e-015 -7.95139e-016
lhumerus -48.1358 16.8332 73.3984
lradius 15.5617
lwrist -25.6982
lhand -9.71915 -14.1165
lfingers 7.12502
lthumb 16.2541 15.2221
rfemur -20.7557 -3.96642 24.0991
rtibia 33.0341
rfoot -27.3693 13.2545
rtoes 3.01299
lfemur -48.7234 4.15313 -22.8723
ltibia 51.7098
lfoot -7.38403 4.42461
ltoes -8.43682
280
root -0.0411127 16.2632 17.9885 16.5103 1.55228 -0.400222
lowerback -14.7091 0.433833 0.996605
upperback -5.36726 0.390658 1.29386
thorax 2.57224 0.198874 0.854563
lowerneck -4.20255 -0.269448 0.186966
upperneck 8.98687 -0.126295 -2.7111
head 3.65423 -0.168938 -0.931874
rclavicle 8.5291e-015 -2.62396e-014
rhumerus -20.542 -0.724023 -84.7608
rradius 37.922
rwrist -11.3036
rhand -18.9733 -26.7068
rfingers 7.12502
rthumb 7.33089 -56.5598
lclavicle 8.5291e-015 -2.62396e-014
lhumerus -49.5327 18.5728 71.1585
lradius 14.8384
lwrist -28.4542
lhand -10.2108 -14.7104
lfingers 7.12502
lthumb 15.7807 14.6663
rfemur -19.6302 -4.10578 24.3252
rtibia 32.4392
rfoot -27.391 14.1069
rtoes 5.21566
lfemur -48.791 4.23601 -22.4654
ltibia 48.3829
lfoot -7.09368 4.65783
ltoes -5.11537
281
root -0.0297037 16.2323 18.1901 16.4996 1.28673 -0.163498
lowerback -14.4935 0.432222 0.710384
upperback -5.3463 0.434691 1.19278
thorax 2.47758 0.221916 0.915746
lowerneck -4.3027 -0.191302 0.104909
upperneck 8.78831 -0.0237117 -2.65703
head 3.60553 -0.117801 -0.893723
rclavicle 1.27409e-014 6.36111e-015
rhumerus -19.512 0.536899 -84.8093
rradius 39.1023
rwrist -11.9821
rhand -16.0637 -33.0935
rfingers 7.12502
rthumb 10.1387 -62.8293
lclavicle 1.27409e-014 6.36111e-015
lhumerus -51.1242 20.1882 68.8119
lradius 14.1639
lwrist -31.3756
lhand -10.5649 -14.9995
lfingers 7.12502
lthumb 15.4396 14.4038
rfemur -18.539 -4.88865 23.9588
rtibia 31.887
rfoot -27.5835 15.2748
rtoes 7.39395
lfemur -48.5101 4.01143 -22.6025
ltibia 44.8521
lfoot -7.23958 4.91668
ltoes -5.62787
282
root -0.0111519 16.2284 18.4005 16.6005 1.10156 -0.292104
lowerback -14.3845 0.495022 0.910992
upperback -5.46697 0.494922 1.15247
thorax 2.29386 0.249638 0.768219
lowerneck -4.27866 -0.0915895 0.10083
upperneck 8.8003 0.103897 -2.58149
head 3.60674 -0.0515554 -0.862364
rclavicle 1.34677e-014 -1.11319e-014
rhumerus -18.5877 1.78004 -84.8074
rradius 40.0712
rwrist -12.5849
rhand -15.3233 -34.4632
rfingers 7.12502
rthumb 10.8529 -64.1628
lclavicle 1.34677e-014 -1.11319e-014
lhumerus -53.0384 21.5525 66.2969
lradius 13.6526
lwrist -33.859
lhand -10.2065 -14.7745
lfingers 7.12502
lthumb 15.7848 14.6019
rfemur -17.5173 -6.03896 23.9613
rtibia 31.2335
rfoot -27.4514 17.1502
rtoes 10.2002
lfemur -48.4827 3.78483 -22.3126
ltibia 41.202
lfoot -7.82912 5.01383
ltoes -8.74425
283
root 0.00111442 16.2178 18.6059 16.8524 0.550241 -0.716786
lowerback -14.4804 0.690705 1.22392
upperback -5.65563 0.70872 1.22182
thorax 2.14798 0.352888 0.69809
lowerneck -3.95948 0.0438485 0.207665
upperneck 8.75455 0.282408 -2.66695
head 3.53253 0.0394655 -0.89979
rclavicle -4.93856e-015 -4.77083e-015
rhumerus -17.7868 3.09772 -84.7705
rradius 41.1007
rwrist -13.2589
rhand -16.6463 -32.5902
rfingers 7.12502
rthumb 9.57657 -62.3525
lclavicle -4.93856e-015 -4.77083e-015
lhumerus -55.1702 23.1213 63.3039
lradius 13.1562
lwrist -36.4934
lhand -9.49555 -14.5192
lfingers 7.12502
lthumb 16.4694 14.8017
rfemur -16.6563 -6.48434 24.1925
rtibia 30.3879
rfoot -26.8844 19.107
rtoes 13.8353
lfemur -48.5314 3.84394 -21.649
ltibia 37.5227
lfoot -7.88109 5.61829
ltoes -9.79992
284
root 0.0021375 16.2059 18.8103 17.2418 -0.521107 -1.02901
lowerback -14.7277 0.97303 1.16957
upperback -5.86688 1.08334 1.26645
thorax 2.05462 0.539473 0.837559
lowerneck -3.63715 0.192523 0.414198
upperneck 8.70547 0.478309 -2.82265
head 3.45878 0.13983 -0.977643
rclavicle 2.18663e-014 1.74931e-014
rhumerus -17.0989 4.22945 -84.7252
rradius 42.0597
rwrist -13.5411
rhand -16.6376 -32.4821
rfingers 7.12502
rthumb 9.58501 -62.2441
lclavicle 2.18663e-014 1.74931e-014
lhumerus -57.4225 24.6436 59.9992
lradius 12.5997
lwrist -39.2956
lhand -9.39045 -15.0064
lfingers 7.12502
lthumb 16.5706 14.3061
rfemur -15.7987 -6.18973 24.1848
rtibia 29.2042
rfoot -26.3877 20.4475
rtoes 15.7675
lfemur -48.6963 4.10776 -20.9988
ltibia 33.9865
lfoot -8.0164 6.22278
ltoes -11.715
285
root 0.017308 16.1822 19.0416 17.2796 -0.642648 -1.64803
lowerback -14.968 1.05807 1.76024
upperback -5.83638 1.10201 1.38984
thorax 2.22197 0.543307 0.641476
lowerneck -3.75677 0.252151 0.570903
upperneck 8.83427 0.560903 -2.9369
head 3.53038 0.179482 -1.04116
rclavicle -2.06239e-014 -6.75868e-015
rhumerus -16.2254 5.10782 -84.6532
rradius 43.0315
rwrist -13.4316
rhand -16.103 -33.2896
rfingers 7.12502
rthumb 10.1008 -63.0272
lclavicle -2.06239e-014 -6.75868e-015
lhumerus -59.5078 26.0737 56.7191
lradius 12.1045
lwrist -42.0604
lhand -9.61555 -15.253
lfingers 7.12502
lthumb 16.3538 14.0775
rfemur -14.1955 -6.89346 24.6535
rtibia 27.9114
rfoot -27.1887 20.7339
rtoes 12.1109
lfemur -48.5137 3.70249 -19.7778
ltibia 30.589
lfoot -8.13227 6.46861
ltoes -13.7629
